/* XPM */
static char * axmud_xpm[] = {
"32 32 264 2",
"  	c None",
". 	c #E7E7E7",
"+ 	c #F2F2F2",
"@ 	c #FEFEFE",
"# 	c #FFFFFF",
"$ 	c #FAFAFA",
"% 	c #F6F6F6",
"& 	c #BDBDBF",
"* 	c #F4F4F3",
"= 	c #FBFBFA",
"- 	c #92929B",
"; 	c #F5F5F5",
"> 	c #F1F1F1",
", 	c #DDDDE4",
"' 	c #828392",
") 	c #F7F7F6",
"! 	c #EEEEEE",
"~ 	c #EDEDED",
"{ 	c #B6B7BE",
"] 	c #BEC0DB",
"^ 	c #EFEFED",
"/ 	c #E9E9E9",
"( 	c #C6C8E4",
"_ 	c #B0B1C6",
": 	c #BEBFBF",
"< 	c #817D7B",
"[ 	c #413F3F",
"} 	c #1B1612",
"| 	c #75685C",
"1 	c #B9B9BF",
"2 	c #CFD1F1",
"3 	c #9596A8",
"4 	c #EFEFEF",
"5 	c #A1A1A5",
"6 	c #D6D8F9",
"7 	c #DCDEFF",
"8 	c #676672",
"9 	c #7B5126",
"0 	c #555455",
"a 	c #3C362F",
"b 	c #B2783B",
"c 	c #69676F",
"d 	c #DEE0FF",
"e 	c #D8DAFB",
"f 	c #AFAFB1",
"g 	c #B2B3BA",
"h 	c #D0D2F3",
"i 	c #99795E",
"j 	c #875B2E",
"k 	c #4C4B4D",
"l 	c #413A35",
"m 	c #B1783D",
"n 	c #937A68",
"o 	c #DADCFF",
"p 	c #BBBBC5",
"q 	c #EEEEED",
"r 	c #B2B1B0",
"s 	c #865828",
"t 	c #83582C",
"u 	c #303032",
"v 	c #35312D",
"w 	c #9B6833",
"x 	c #7F6042",
"y 	c #B6B6BB",
"z 	c #77777F",
"A 	c #F7F7F8",
"B 	c #CFCFCF",
"C 	c #59514D",
"D 	c #615B56",
"E 	c #474444",
"F 	c #4C4A49",
"G 	c #756E6A",
"H 	c #646261",
"I 	c #CDCDCB",
"J 	c #85869D",
"K 	c #F4F4F5",
"L 	c #F3F3F3",
"M 	c #D5D5D5",
"N 	c #4F4E4E",
"O 	c #4D4C4C",
"P 	c #5E5D5D",
"Q 	c #595858",
"R 	c #464545",
"S 	c #504F4F",
"T 	c #FCFCFC",
"U 	c #A4A3A7",
"V 	c #9596AF",
"W 	c #DADADC",
"X 	c #F4F4F4",
"Y 	c #D0D0D0",
"Z 	c #575757",
"` 	c #7E7A7A",
" .	c #636363",
"..	c #6D6D6D",
"+.	c #535151",
"@.	c #626262",
"#.	c #9E9FA6",
"$.	c #9A9BB4",
"%.	c #949494",
"&.	c #6C6C6C",
"*.	c #6D6A6A",
"=.	c #5C5A5A",
"-.	c #565454",
";.	c #A09E9E",
">.	c #525252",
",.	c #9E9FA5",
"'.	c #9C9EB8",
").	c #E7E7E8",
"!.	c #515151",
"~.	c #747474",
"{.	c #E6E6E6",
"].	c #959593",
"^.	c #9D9D9B",
"/.	c #FBFBFB",
"(.	c #545454",
"_.	c #E3E3E3",
":.	c #A2A3A3",
"<.	c #B2B3D0",
"[.	c #F8F8F9",
"}.	c #C5C5C5",
"|.	c #797979",
"1.	c #76777D",
"2.	c #B09E3A",
"3.	c #EAC604",
"4.	c #E4C207",
"5.	c #807D6B",
"6.	c #767677",
"7.	c #B9B9B9",
"8.	c #AFB0C6",
"9.	c #EAEAEA",
"0.	c #7F7F7F",
"a.	c #818181",
"b.	c #626571",
"c.	c #E4C201",
"d.	c #FFD800",
"e.	c #FFD900",
"f.	c #776F45",
"g.	c #7F8081",
"h.	c #6A6A6A",
"i.	c #BFBEBD",
"j.	c #AAA9B8",
"k.	c #909090",
"l.	c #7D7D7D",
"m.	c #5D5D5D",
"n.	c #E0E0E1",
"o.	c #D8D5C7",
"p.	c #A68D03",
"q.	c #A99527",
"r.	c #F9F9F8",
"s.	c #B0B0B0",
"t.	c #767676",
"u.	c #999999",
"v.	c #ABABAB",
"w.	c #7E7E7E",
"x.	c #7D7E7E",
"y.	c #5A5047",
"z.	c #9E7853",
"A.	c #F7F7F7",
"B.	c #B8B7B7",
"C.	c #969494",
"D.	c #8A8888",
"E.	c #6E6D6D",
"F.	c #6B6B6B",
"G.	c #E0E1E5",
"H.	c #F4F5FB",
"I.	c #DBDBDB",
"J.	c #808080",
"K.	c #848484",
"L.	c #7A7A7A",
"M.	c #5F574F",
"N.	c #7B5E40",
"O.	c #F8F8F8",
"P.	c #888585",
"Q.	c #9F9A9A",
"R.	c #827265",
"S.	c #867668",
"T.	c #A39E9E",
"U.	c #747373",
"V.	c #B1B1B1",
"W.	c #5A5A5A",
"X.	c #C1C1C2",
"Y.	c #977E64",
"Z.	c #A18160",
"`.	c #A19F9F",
" +	c #8C8787",
".+	c #918C8C",
"++	c #93683D",
"@+	c #886849",
"#+	c #938F90",
"$+	c #878282",
"%+	c #C0C0C0",
"&+	c #4A4A4A",
"*+	c #D8D6D5",
"=+	c #DAD9D7",
"-+	c #6F6C6C",
";+	c #685440",
">+	c #896846",
",+	c #A19D9D",
"'+	c #9C9899",
")+	c #815B33",
"!+	c #867B73",
"~+	c #8F8C8C",
"{+	c #777777",
"]+	c #7B7777",
"^+	c #78634E",
"/+	c #8F6942",
"(+	c #8A8788",
"_+	c #878586",
":+	c #88694A",
"<+	c #7E746E",
"[+	c #707070",
"}+	c #9D9D9D",
"|+	c #8F8B8C",
"1+	c #A4A0A1",
"2+	c #70573D",
"3+	c #8C6742",
"4+	c #ACA7A7",
"5+	c #A29D9E",
"6+	c #C2C2C2",
"7+	c #7C7A7A",
"8+	c #A5A1A0",
"9+	c #98887B",
"0+	c #93857A",
"a+	c #B0ABAA",
"b+	c #939090",
"c+	c #676767",
"d+	c #9E9E9E",
"e+	c #8C8A8A",
"f+	c #7F7D7D",
"g+	c #545353",
"h+	c #E1E1E1",
"i+	c #404040",
"j+	c #585858",
"k+	c #AFAFAF",
"l+	c #656565",
"m+	c #EBEBEB",
"n+	c #C4C4C4",
"o+	c #595959",
"p+	c #BCBCBC",
"q+	c #E5E5E5",
"r+	c #C1C1C1",
"s+	c #727272",
"t+	c #757575",
"u+	c #696969",
"v+	c #7E7F86",
"w+	c #777567",
"x+	c #E2E2E2",
"y+	c #D2D2D3",
"z+	c #88877F",
"A+	c #A6A49B",
"B+	c #C7C6BA",
"C+	c #D3B300",
"D+	c #C1B46B",
"E+	c #A5A088",
"F+	c #C2AB30",
"G+	c #C0B98F",
"H+	c #EEEEEF",
"I+	c #9B9884",
"J+	c #81784A",
"K+	c #EFEDE2",
"L+	c #C9C29A",
"M+	c #D6BF41",
"N+	c #715F00",
"O+	c #D6D6D1",
"                              . .                               ",
"                    + @ @ # # # # # # @ @ $                     ",
"                % & * # # # # # # # # # = - ; >                 ",
"              # # , ' ) # # # ! ~ # # # { ] ^ # #               ",
"          ! @ # # / ( _ : # < [ } | # 1 2 3 # # # @ 4           ",
"        4 # # # # # 5 6 7 8 9 0 a b c d e f # # # # # 4         ",
"        @ # # # # # # g h i j k l m n o p # # # # q @ @         ",
"      # # # # # # # # # r s t u v w x y # # # # # z A # #       ",
"    + # # # # # # # # # B C D E F G H @ # # # # I J K # # L     ",
"    @ # # # # # # # # # M N O P Q R S T # # # # U V W # # @     ",
"  X # # # # # # # # # # Y Z `  ...+.@.$ # # # # #.$.W # # # X   ",
"  @ # # # # # # # # # # %.&.*.=.-.;.>.! # # # # ,.'.).# # # @   ",
"  @ # # # # # # # # # # !.~.{.].^./.(._.# # # # :.<.[.# # # @   ",
"  # # # # # # # # # # }.|.1.2.3.4.5.6.7.# # # # I 8.$ # # # #   ",
"9.# # # # # # # # # # 0.a.b.c.d.e.f.g.h.# # # # i.j.T # # # # 9.",
"+ # # # # # # # # # k.l.m.n.o.p.q.r.s.t.u.v.w.x.y.z.A.# # # # + ",
"+ # # # # # 4 B.C.D.E.F.{.# # G.H.# I.|.a.J.K.L.M.N.O.# # # # L ",
"/ # # # # T P.Q.R.S.T.U.# # # # # # # V.W.m.@.X.Y.Z.@ # # # # / ",
"  # # # # `. +.+++@+#+$+%+# # # # # # # &+%+# # *+=+@ # # # #   ",
"  @ # # # -+;+>+,+'+)+!+~+# # # # # # # {+t.# # # # # # # # @   ",
"  @ # # # ]+^+/+(+_+:+<+D.# # # # # # # J.[+# # # # # # # # @   ",
"  % # # # }+|+1+2+3+4+5+6+# # # # # # # 0.L.# # # # # # # # %   ",
"    # # # /.7+8+9+0+a+b+# # # # # # # # c+d+# # # # # # # #     ",
"    L # # # # d+e+f+g++ # # # # # # # h+i+L # # # # # # # X     ",
"      # # # # # # # j+k+# # # # # # L l+|.# # # # # # # #       ",
"      m+# # # # # # n+o+p+q+> % q+r+s+t+r+# # # # # # # m+      ",
"        + # # # # # # V.t+J.t.u+l.0.[+V.# # # # # # # +         ",
"          L # # # # # # v+w+}.x+y+z+A+# # # # # # # L           ",
"            9.# # # # B+C+D+# # # E+F+G+H+# # # # 9.            ",
"                L # # I+J+K+# # # L+M+N+O+# # L                 ",
"                    O.# # # # # # # # # # O.                    ",
"                            > % % >                             "};
