/* XPM */
static char * axmud_xpm[] = {
"32 32 304 2",
"  	c None",
". 	c #FCFCFC",
"+ 	c #FEFEFE",
"@ 	c #FFFFFF",
"# 	c #FDFDFD",
"$ 	c #FBFBFB",
"% 	c #BBBDBF",
"& 	c #F6F6F6",
"* 	c #EAEAEC",
"= 	c #ACADB0",
"- 	c #FAFAFA",
"; 	c #C4C6CB",
"> 	c #6F737B",
", 	c #F9F8F9",
"' 	c #A5A9B2",
") 	c #ACAEB0",
"! 	c #FEFEFF",
"~ 	c #DBDCDD",
"{ 	c #CCD0DB",
"] 	c #A4A8B3",
"^ 	c #C0C2C6",
"/ 	c #E4E4E6",
"( 	c #766C5E",
"_ 	c #5C5B5F",
": 	c #434140",
"< 	c #CBCACA",
"[ 	c #DCDCDD",
"} 	c #ABAFB8",
"| 	c #ADB2BF",
"1 	c #E9EBEB",
"2 	c #83878D",
"3 	c #D9DDEA",
"4 	c #D7DCE8",
"5 	c #786D62",
"6 	c #776248",
"7 	c #73757C",
"8 	c #474036",
"9 	c #64523B",
"0 	c #C8CEDC",
"a 	c #D8DCE9",
"b 	c #B1B4BC",
"c 	c #E3E3E4",
"d 	c #94979E",
"e 	c #C5C7D2",
"f 	c #97774C",
"g 	c #6C593F",
"h 	c #7B7D83",
"i 	c #4E463C",
"j 	c #A87B3C",
"k 	c #989EAD",
"l 	c #AAACB6",
"m 	c #F3F3F3",
"n 	c #656972",
"o 	c #95999C",
"p 	c #7B5E36",
"q 	c #624E34",
"r 	c #5C5E64",
"s 	c #4D4744",
"t 	c #7C6240",
"u 	c #777675",
"v 	c #F4F5F5",
"w 	c #AFB4BF",
"x 	c #BFC1C3",
"y 	c #73757A",
"z 	c #656367",
"A 	c #505055",
"B 	c #505054",
"C 	c #787678",
"D 	c #69676C",
"E 	c #797C81",
"F 	c #EFEFF0",
"G 	c #9CA0AB",
"H 	c #B1B3B9",
"I 	c #EEEFF1",
"J 	c #4E535E",
"K 	c #42444C",
"L 	c #565962",
"M 	c #535760",
"N 	c #454A53",
"O 	c #6A6D75",
"P 	c #EEEFEF",
"Q 	c #9A9EA8",
"R 	c #B5B7BE",
"S 	c #B2B3B6",
"T 	c #63666E",
"U 	c #CFCDCC",
"V 	c #707279",
"W 	c #87888C",
"X 	c #848487",
"Y 	c #525760",
"Z 	c #F3F3F4",
"` 	c #EEEEEF",
" .	c #969AA5",
"..	c #B6B9BE",
"+.	c #898C92",
"@.	c #767B85",
"#.	c #8D8E94",
"$.	c #5F6166",
"%.	c #777980",
"&.	c #ACB0BC",
"*.	c #4C515A",
"=.	c #E1E2E3",
"-.	c #EFF0F0",
";.	c #C2C6D2",
">.	c #B9BBC0",
",.	c #5E636D",
"'.	c #8C8F9A",
").	c #CCD0DC",
"!.	c #8D929C",
"~.	c #AFB3BE",
"{.	c #D0D3E0",
"].	c #4E535D",
"^.	c #F8FAFA",
"/.	c #F0F0F1",
"(.	c #C8CCD8",
"_.	c #C9CBCE",
":.	c #83868E",
"<.	c #80848F",
"[.	c #606573",
"}.	c #B2A870",
"|.	c #CFB639",
"1.	c #BFAE55",
"2.	c #6F7277",
"3.	c #5C606A",
"4.	c #E6E6E8",
"5.	c #6F747C",
"6.	c #757980",
"7.	c #7D828D",
"8.	c #767A83",
"9.	c #868B9D",
"0.	c #BBAB54",
"a.	c #E2C743",
"b.	c #D1BA47",
"c.	c #A9ADB4",
"d.	c #52555E",
"e.	c #797C82",
"f.	c #F5F5F5",
"g.	c #EBECED",
"h.	c #D5D5D7",
"i.	c #40424A",
"j.	c #BABBBD",
"k.	c #F9F9F9",
"l.	c #C1C2C6",
"m.	c #8A8D93",
"n.	c #70737E",
"o.	c #71767F",
"p.	c #A7ACB7",
"q.	c #DBDFEC",
"r.	c #B4B7BD",
"s.	c #998935",
"t.	c #88856F",
"u.	c #D4D7E4",
"v.	c #9296A1",
"w.	c #6B6F79",
"x.	c #7B7F88",
"y.	c #80848D",
"z.	c #72767F",
"A.	c #636770",
"B.	c #12151B",
"C.	c #AAACB1",
"D.	c #C8C9CA",
"E.	c #54565B",
"F.	c #A7A09A",
"G.	c #686668",
"H.	c #7F8081",
"I.	c #6F727B",
"J.	c #DCE0ED",
"K.	c #BABDC3",
"L.	c #D8DCEC",
"M.	c #BFC3D0",
"N.	c #52565F",
"O.	c #7B7F89",
"P.	c #81868F",
"Q.	c #747881",
"R.	c #A5A7AA",
"S.	c #07090F",
"T.	c #FAFBFC",
"U.	c #7C7D81",
"V.	c #655F5B",
"W.	c #9B6C36",
"X.	c #8B663E",
"Y.	c #A8A4A3",
"Z.	c #66676B",
"`.	c #B8BCC7",
" +	c #DADEEB",
".+	c #D8DDEA",
"++	c #DADFEB",
"@+	c #DBDEEB",
"#+	c #595D66",
"$+	c #5D616A",
"%+	c #ABADB1",
"&+	c #F2F2F3",
"*+	c #F4F4F5",
"=+	c #B9BBBF",
"-+	c #ECEDEE",
";+	c #9EA0A3",
">+	c #6E6A67",
",+	c #7E8086",
"'+	c #857667",
")+	c #7E7F82",
"!+	c #877B70",
"~+	c #756D67",
"{+	c #6B7079",
"]+	c #DDE1EE",
"^+	c #DCDFEC",
"/+	c #9EA3AF",
"(+	c #5E6169",
"_+	c #797A7F",
":+	c #7F6548",
"<+	c #605852",
"[+	c #74777A",
"}+	c #979494",
"|+	c #90622C",
"1+	c #85735F",
"2+	c #7A7D82",
"3+	c #D9DEEB",
"4+	c #D8DCE8",
"5+	c #D5D9E6",
"6+	c #343842",
"7+	c #86898D",
"8+	c #787470",
"9+	c #7B7C80",
"0+	c #806A55",
"a+	c #848283",
"b+	c #858382",
"c+	c #7B746C",
"d+	c #84878E",
"e+	c #D9DDEB",
"f+	c #D9DDE9",
"g+	c #444852",
"h+	c #EAEAED",
"i+	c #64666B",
"j+	c #7F7E7F",
"k+	c #7D6042",
"l+	c #766352",
"m+	c #AAA9AB",
"n+	c #878584",
"o+	c #999DA9",
"p+	c #D7DBE9",
"q+	c #D8DBE9",
"r+	c #D8DDE9",
"s+	c #484C56",
"t+	c #F8F9FA",
"u+	c #FEFFFF",
"v+	c #CFD1D2",
"w+	c #8A8B8F",
"x+	c #808388",
"y+	c #72757A",
"z+	c #7A7C80",
"A+	c #888D97",
"B+	c #D9DCEA",
"C+	c #C8CBD7",
"D+	c #464A53",
"E+	c #62656E",
"F+	c #727681",
"G+	c #DADEEC",
"H+	c #D7DAE7",
"I+	c #656974",
"J+	c #8E9096",
"K+	c #A4A8AC",
"L+	c #838791",
"M+	c #DEE2EF",
"N+	c #E1E5F4",
"O+	c #E0E4F1",
"P+	c #E1E4F3",
"Q+	c #C1C3CF",
"R+	c #6C7079",
"S+	c #555861",
"T+	c #E6E7E8",
"U+	c #91949A",
"V+	c #666A75",
"W+	c #5D606A",
"X+	c #747781",
"Y+	c #777B85",
"Z+	c #646771",
"`+	c #656975",
" @	c #676A74",
".@	c #E2E3E5",
"+@	c #61646D",
"@@	c #666971",
"#@	c #EFF1F2",
"$@	c #C1C4C7",
"%@	c #5B5D64",
"&@	c #CED0D3",
"*@	c #C8C7BD",
"=@	c #B8AB67",
"-@	c #B9B7AC",
";@	c #F2F3F7",
">@	c #9F9042",
",@	c #E4E2D3",
"'@	c #D7D6D1",
")@	c #C5C6C3",
"!@	c #645C2E",
"~@	c #928956",
"{@	c #ECEDF1",
"]@	c #A9A692",
"^@	c #AF9824",
"/@	c #93822E",
"(@	c #6E6636",
"_@	c #E4E5E6",
":@	c #DBDCDC",
"<@	c #DCDCD9",
"[@	c #E1E0DA",
"}@	c #D8D8D3",
"                        . + @ @ @ @ # @                         ",
"                  @ @ @ @ @ @ @ @ @ @ @ @ @ @                   ",
"              $ @ % & @ @ @ @ @ @ @ @ @ * = @ @ -               ",
"            @ @ @ ; > , @ @ @ @ @ @ @ @ ' ) @ @ ! @             ",
"          + @ @ @ ~ { ] ^ / ( _ : < [ } | 1 @ @ @ @ +           ",
"        + @ @ @ @ @ 2 3 4 5 6 7 8 9 0 a b @ @ @ c @ @ #         ",
"      @ @ @ @ @ @ @ - d e f g h i j k l m @ @ @ n @ @ @ +       ",
"    $ @ @ @ @ @ @ @ @ @ o p q r s t u @ @ @ @ v w x @ @ @ $     ",
"    @ @ @ @ @ @ @ @ @ @ y z A B C D E + @ @ @ F G H @ @ @ @     ",
"  @ @ @ @ @ @ @ @ @ @ @ I J K L M N O # @ @ @ P Q R @ @ @ @ +   ",
"  @ @ @ @ @ @ @ @ @ @ @ S T U V W X Y Z @ @ @ `  ...@ @ @ @ @   ",
"  @ @ @ @ @ @ @ @ @ @ @ +.@.#.$.%.&.*.=.@ @ @ -.;.>.@ @ @ @ @   ",
". @ @ @ @ @ @ @ @ @ @ m ,.'.).!.~.{.].^.@ @ @ /.(._.@ @ @ @ @   ",
"+ @ @ @ @ @ @ @ @ @ @ :.<.[.}.|.1.2.3.4.@ @ @ @ 5.@ @ @ @ @ @ + ",
"@ @ @ @ @ @ @ @ @ # 6.7.8.9.0.a.b.c.d.e.. f.g.h.i.j.@ @ @ @ @ @ ",
"@ @ @ @ @ @ @ k.l.m.n.o.p.q.r.s.t.u.v.w.x.y.z.A.B.C.@ @ @ @ @ # ",
"@ @ @ @ @ @ D.E.F.G.H.I.J.3 3 K.L.a M.N.O.P.Q.R.S.T.@ @ @ @ @ @ ",
"@ @ @ @ @ /.U.V.W.X.Y.Z.`. +.+q.++3 @+#+$+%+&+*+=+-+@ @ @ @ @ @ ",
"# @ @ @ @ ;+>+,+'+)+!+~+{+]+ +^+ +a  +/+(+@ @ @ @ @ @ @ @ @ @ # ",
"@ @ @ @ @ _+:+<+[+}+|+1+2+q.3+ +@+3 4+5+6+@ @ + @ @ @ @ @ @ @   ",
"  @ @ @ @ 7+8+9+0+a+b+c+d+e+4+3 3 3 f+a g+h+@ ! @ @ @ @ @ @ @   ",
"  @ @ @ @ /.i+j+k+l+m+n+o+a p+q+r+3 3 4+s+t+@ @ @ @ @ @ @ @ @   ",
"  @ @ @ @ u+v+w+x+y+z+A+B+p+3 3 r+r+3 C+D+@ @ @ @ @ @ @ @ @ +   ",
"    @ @ @ @ @ @ @ -+E+F+q.q.G+3  +G+H+I+J+@ @ @ @ @ @ @ @ @     ",
"    $ @ @ @ @ @ @ @ K+N.L+M+N+O+P+Q+R+S+T+@ @ @ @ @ @ @ @       ",
"      @ @ @ @ @ @ @ @ U+V+W+X+Y+Z+`+ @.@@ @ @ @ @ @ @ @ #       ",
"        + @ @ @ @ @ @ @ +@@@=+#@$@%@&@@ # @ @ @ @ @ @ #         ",
"          # @ @ @ @ @ *@=@-@@ @ ;@>@,@'@@ @ @ @ @ @ #           ",
"            + @ @ @ )@!@~@{@+ @ ]@^@/@(@_@@ @ @ @ #             ",
"                @ @ /.:@<@@ @ + @ @ [@}@@ @ @ @                 ",
"                  # + @ @ @ @ @ @ @ @ @ @ @ +                   ",
"                          + @ # @ @ #                           "};
